<svg width="38" height="38" viewBox="0 0 38 38" fill="none" xmlns="http://www.w3.org/2000/svg">
<g clip-path="url(#clip0_137_78)">
<path d="M15.3612 6.33333C15.3612 5.63377 15.9283 5.06667 16.6279 5.06667H23.2837C23.9832 5.06667 24.5503 5.63377 24.5503 6.33333V18.6085H15.3612V6.33333Z" fill="#585858"/>
<path d="M15.96 19.0921H23.9527L22.686 20.543H17.2267L15.96 19.0921Z" fill="#585858"/>
<rect x="6.65576" y="12.8048" width="0.967273" height="3.86909" fill="#585858"/>
<path d="M0 14.7394C0 13.3472 1.01365 12.1623 2.38902 11.9468L6.17212 11.3539V18.1248L2.38902 17.532C1.01365 17.3164 0 16.1315 0 14.7394V14.7394Z" fill="#585858"/>
<path d="M10.0412 18.6085C10.0412 17.8072 10.6908 17.1576 11.4921 17.1576V17.1576C12.2935 17.1576 12.943 17.8072 12.943 18.6085V28.7648H10.0412V18.6085Z" fill="#585858"/>
<path d="M10.0412 18.6085C10.0412 17.8072 10.6908 17.1576 11.4921 17.1576V17.1576C12.2935 17.1576 12.943 17.8072 12.943 18.6085V33.8269H10.0412V18.6085Z" fill="#585858"/>
<path fill-rule="evenodd" clip-rule="evenodd" d="M16.1442 7.00119L8.10666 9.90301V18.6085H9.5576C9.55763 17.5401 10.4237 16.674 11.4921 16.674C12.5605 16.674 13.4267 17.5401 13.4267 18.6085H16.1442V7.00119Z" fill="#585858"/>
<path fill-rule="evenodd" clip-rule="evenodd" d="M32.7342 9.42052L23.7673 7.00119V18.6085H26.4849C26.4849 17.5401 27.351 16.674 28.4194 16.674C29.4878 16.674 30.3539 17.5401 30.354 18.6085H34.5224V11.7552C34.5224 10.6623 33.7894 9.70522 32.7342 9.42052Z" fill="#585858"/>
<path d="M9.55754 32.9333H13.4266L14.3939 35.8352H8.59027L9.55754 32.9333Z" fill="#585858"/>
<path d="M15.4731 32.5069L17.8551 29.458L20.7373 30.4823L17.1642 35.0556L15.4731 32.5069Z" fill="#585858"/>
<path d="M26.9685 18.6085C26.9685 17.8072 27.6181 17.1576 28.4194 17.1576V17.1576C29.2207 17.1576 29.8703 17.8072 29.8703 18.6085V33.8269H26.9685V18.6085Z" fill="#585858"/>
<path d="M26.4849 32.9333H30.3539L31.3212 35.8352H25.5176L26.4849 32.9333Z" fill="#585858"/>
<path fill-rule="evenodd" clip-rule="evenodd" d="M12.943 26.1439C12.3138 25.6884 11.4318 25.8093 10.9496 26.4265C10.4563 27.0579 10.5682 27.9697 11.1997 28.4631L12.943 29.8251V26.1439ZM13.4266 30.203L16.1541 32.3339L17.9406 30.0472L13.4266 26.5205V30.203Z" fill="#585858"/>
<path d="M32.4003 32.5069L34.7824 29.458L37.6645 30.4823L34.0915 35.0556L32.4003 32.5069Z" fill="#585858"/>
<path fill-rule="evenodd" clip-rule="evenodd" d="M29.8703 26.1439C29.2411 25.6884 28.3591 25.8093 27.8769 26.4265C27.3836 27.0579 27.4955 27.9697 28.127 28.4631L29.8703 29.8251V26.1439ZM30.354 30.203L33.0814 32.3339L34.868 30.0472L30.354 26.5205V30.203Z" fill="#585858"/>
</g>
<defs>
<clipPath id="clip0_137_78">
<rect width="38" height="38" fill="white"/>
</clipPath>
</defs>
</svg>
