<svg width="30" height="28" viewBox="0 0 30 28" fill="none" xmlns="http://www.w3.org/2000/svg">
<path d="M15 11.1073C17.8154 11.1073 20.0977 8.82498 20.0977 6.00962C20.0977 3.19426 17.8154 0.911964 15 0.911964C12.1846 0.911964 9.90234 3.19426 9.90234 6.00962C9.90234 8.82498 12.1846 11.1073 15 11.1073Z" fill="#585858"/>
<path d="M25.3125 11.1072C27.0923 11.1072 28.5352 9.66439 28.5352 7.88457C28.5352 6.10474 27.0923 4.66191 25.3125 4.66191C23.5327 4.66191 22.0898 6.10474 22.0898 7.88457C22.0898 9.66439 23.5327 11.1072 25.3125 11.1072Z" fill="#585858"/>
<path d="M4.6875 11.1072C6.46732 11.1072 7.91016 9.66439 7.91016 7.88457C7.91016 6.10474 6.46732 4.66191 4.6875 4.66191C2.90768 4.66191 1.46484 6.10474 1.46484 7.88457C1.46484 9.66439 2.90768 11.1072 4.6875 11.1072Z" fill="#585858"/>
<path d="M7.8627 14.0012C6.59414 12.9619 5.44529 13.0995 3.97852 13.0995C1.78477 13.0995 0 14.8737 0 17.054V23.453C0 24.3999 0.772852 25.1698 1.72324 25.1698C5.82633 25.1698 5.33203 25.244 5.33203 24.9928C5.33203 20.4585 4.79496 17.1332 7.8627 14.0012Z" fill="#585858"/>
<path d="M16.3951 13.1228C13.8332 12.9092 11.6063 13.1253 9.68554 14.7107C6.47126 17.2853 7.08983 20.7519 7.08983 24.9928C7.08983 26.1148 8.00272 27.0447 9.14179 27.0447C21.5099 27.0447 22.0021 27.4437 22.7355 25.8195C22.9761 25.2703 22.9101 25.4448 22.9101 20.1904C22.9101 16.017 19.2965 13.1228 16.3951 13.1228Z" fill="#585858"/>
<path d="M26.0215 13.0994C24.5467 13.0994 23.4042 12.9632 22.1373 14.0012C25.1822 17.1099 24.668 20.2083 24.668 24.9928C24.668 25.2455 24.2577 25.1697 28.2153 25.1697C29.1996 25.1697 30 24.3723 30 23.392V17.0539C30 14.8736 28.2153 13.0994 26.0215 13.0994Z" fill="#585858"/>
</svg>
