<svg width="123" height="53" viewBox="0 0 123 53" fill="none" xmlns="http://www.w3.org/2000/svg">
<path d="M23.0461 28.8155L24.7278 33.7543C25.6378 36.4251 26.4501 38.5606 26.556 38.5606C26.5578 38.5605 26.5594 38.5598 26.5607 38.5587C26.6771 38.4558 29.9688 28.8964 29.9688 28.8964H36.3486L28.6517 51.3235H24.2175C24.2175 51.3235 19.4845 37.6538 19.5039 37.602L14.5634 51.1515H10.1738L2.57384 28.8155L8.92262 28.8196C8.92262 28.8196 12.4004 38.6774 12.4467 38.6774L12.4471 38.677L15.9173 28.8151L23.0461 28.8155ZM0.406376 27.2622L1.10488 29.3152L8.70479 51.6511L9.06267 52.7032H15.6495L16.0215 51.6829L19.4519 42.2752C19.7475 43.1353 20.067 44.0623 20.3865 44.9883C21.1735 47.2696 21.9618 49.5505 22.7512 51.8309L23.1128 52.8753H29.7599L30.1195 51.8274L37.8164 29.4005L38.5219 27.3446H28.862L28.5016 28.3913C27.8403 30.3116 27.1745 32.2304 26.5044 34.1477C26.4009 33.8499 26.2982 33.5519 26.1966 33.2535L24.515 28.3149L24.157 27.2633H14.8185L14.4536 28.3003L12.426 34.0625C11.7437 32.1436 11.0638 30.2238 10.3862 28.3032L10.0211 27.2686L8.92378 27.2678L2.57501 27.2637L0.406376 27.2622ZM121.302 28.7286L121.287 34.607C121.287 34.607 114.955 34.5861 111.736 34.5861C110.665 34.5861 109.939 34.5888 109.904 34.5948C109.35 34.6959 108.996 35.8756 109.154 36.3931C109.231 36.6552 109.812 37.5104 110.44 38.2962C111.066 39.0822 112.097 40.3682 112.725 41.1532C114.338 43.1669 114.56 43.5644 114.709 44.7206C114.952 46.5989 114.064 48.6311 112.415 49.9715C110.762 51.3158 110.835 51.3253 98.5684 51.3253H98.0297C90.5693 51.3231 86.6238 51.2614 86.0495 51.1336C85.0292 50.9028 83.4031 49.576 79.1069 45.454C77.5616 43.9729 76.137 42.6759 76.0639 42.6756C76.0619 42.6756 76.0612 42.6769 76.0612 42.679L76.0103 51.326L69.0471 51.2954L69.004 28.9922H84.534C89.2144 29.1612 92.382 33.8241 91.7515 36.7978C91.6088 37.4726 91.2439 38.4506 90.9407 38.9703C90.3179 40.0371 88.7331 41.4066 87.4469 41.9945C86.9718 42.2092 86.5839 42.4595 86.5839 42.5487C86.5839 42.8804 88.1475 44.4202 88.7331 44.6648C89.2336 44.8741 90.6903 44.9206 97.1149 44.9206L99.1724 44.921C105.63 44.921 105.305 44.8744 105.804 43.8074C106.154 43.0647 105.888 42.6205 103.43 39.8523C100.317 36.7543 100.643 35.2704 100.622 34.1744C100.577 32.861 101.611 28.73 106.986 28.73L121.302 28.7286ZM79.5837 39.0323C82.5651 39.0323 83.1705 38.9862 83.8048 38.7105C85.9465 37.7793 86.0609 35.0291 84.0067 33.8086C83.5567 33.5407 82.9785 33.4967 79.7469 33.479L76.0072 33.4593C76.0383 33.4882 75.9954 38.8071 75.9954 38.8071C75.9954 38.8071 76.9321 39.0323 79.5837 39.0323ZM122.857 27.1768H106.986C103.876 27.1768 102.037 28.4041 101.042 29.4341C99.4222 31.1087 99.0417 33.2174 99.0708 34.2115C99.0723 34.2943 99.0715 34.3793 99.0704 34.4679C99.0564 36.0835 99.2938 37.9125 102.302 40.9168C102.896 41.5862 103.89 42.7087 104.267 43.2666C103.445 43.3677 101.361 43.3677 99.1722 43.3677H98.2429L97.1151 43.3673C93.2543 43.3673 89.9984 43.356 89.3315 43.2245C89.238 43.164 89.1073 43.0589 88.9634 42.9339C90.2973 42.1128 91.646 40.8392 92.2811 39.7506C92.6663 39.0886 93.0915 37.9577 93.27 37.119C93.6659 35.252 93.0132 32.9997 91.5242 31.0926C89.7868 28.8675 87.2595 27.5363 84.5904 27.4401L84.5623 27.4389H67.4493L67.4526 28.9942L67.4957 51.2971L67.4987 52.839L69.0407 52.8458L76.0039 52.8765L77.553 52.8831L77.5625 51.3338L77.5924 46.1537C77.7344 46.2885 77.8814 46.429 78.0327 46.5735C82.7325 51.0814 84.3091 52.3306 85.7067 52.6466C86.0908 52.732 86.7259 52.8739 98.0285 52.877H98.5672C104.687 52.877 107.758 52.877 109.585 52.7007C111.678 52.4984 112.351 52.0238 113.36 51.2019L113.394 51.1745C115.466 49.4893 116.56 46.9401 116.248 44.5212C116.045 42.9481 115.628 42.2946 113.936 40.1824L113.432 39.5539C112.839 38.8123 112.245 38.0704 111.652 37.3281C111.267 36.8462 110.964 36.4185 110.782 36.1382C111.022 36.1377 111.333 36.1373 111.736 36.1373C114.917 36.1373 121.219 36.158 121.282 36.1584L122.836 36.1633L122.84 34.6099L122.854 28.7311L122.857 27.1768ZM77.5571 37.4239L77.5643 36.1518C77.5662 35.7639 77.5682 35.3751 77.5683 35.019L79.7385 35.0305C80.9858 35.037 82.8623 35.0475 83.2281 35.1513C83.6948 35.4347 83.9555 35.8731 83.9272 36.327C83.9117 36.5722 83.7949 37.023 83.1858 37.2871C82.8464 37.4348 82.3054 37.4805 79.5841 37.4805C78.7206 37.4805 78.0546 37.4555 77.5571 37.4239ZM54.8947 28.6371L62.7101 51.1225L56.3417 51.1515L55.2846 47.7744L43.8983 47.683L42.8935 51.0642L36.5894 50.998L44.3056 28.6466L54.8947 28.6371ZM49.7736 31.9337C49.7575 31.9982 48.7758 34.692 47.7908 37.3851C46.7976 40.1007 45.8012 42.8164 45.7874 42.8373C45.8138 42.8296 49.3402 42.8218 51.6004 42.8218C52.6582 42.8218 53.4383 42.8238 53.4529 42.8272L53.4531 42.8282V42.8276L53.4529 42.8272C53.4133 42.7252 49.785 32.065 49.7736 31.9337L49.7738 31.9325L49.7736 31.9337ZM55.9978 27.0841L54.8935 27.0853L44.3045 27.0952L43.1996 27.0963L42.839 28.1411L35.1227 50.4925L34.4199 52.5279L36.5734 52.5502L42.8776 52.6163L44.0479 52.6286L44.3813 51.507L45.0536 49.2449L54.1421 49.3176L54.8613 51.616L55.2037 52.7098L56.3495 52.7048L62.7177 52.6759L64.889 52.6656L64.1758 50.6147L56.3604 28.1292L55.9978 27.0841ZM48.021 41.2722C48.3149 40.471 48.7108 39.3887 49.2483 37.9185L49.7125 36.649L50.1332 37.8896C50.2585 38.2593 50.8092 39.8819 51.2815 41.2704C49.8772 41.2704 48.82 41.2706 48.021 41.2722ZM57.5289 1.79899V7.34666H46.418V24.3138H39.7938V7.33327L26.8247 7.36993C25.2613 7.36993 25.0518 8.61525 25.0518 9.09242C25.0518 9.67842 25.4339 10.264 27.5327 12.9215C28.8944 14.6476 30.1455 16.3703 30.3104 16.7466C31.2104 18.8185 30.0466 22.046 27.9265 23.3573C26.4154 24.2909 26.6736 24.314 15.4524 24.314H1.55179V18.0814H20.5419L21.1025 17.6915C21.4807 17.4279 21.6999 17.0651 21.7833 16.5684C21.8997 15.8546 21.8396 15.7614 19.4944 13.1197C16.7225 9.99654 16.4296 9.42645 16.5732 7.43259C16.7361 5.15727 18.7651 1.85176 22.3109 1.85176L57.5289 1.79899ZM59.0807 0.244873L57.5263 0.247395L22.3084 0.299768C20.2798 0.299768 18.3957 1.17653 17.0047 2.7677C15.877 4.05782 15.1368 5.76072 15.025 7.32183C14.8363 9.94261 15.4396 10.8898 18.3335 14.1501C19.1734 15.0961 19.972 15.996 20.2385 16.3779C20.2357 16.3884 20.2322 16.3987 20.228 16.4087C20.2251 16.4113 20.2206 16.4144 20.2144 16.4188L20.055 16.5296H0V25.8658H15.4524C20.9849 25.8658 23.7157 25.8607 25.3245 25.7424C27.1653 25.6078 27.7527 25.292 28.6325 24.7454L28.7423 24.6771C31.5088 22.9662 32.9345 18.8914 31.7338 16.1281C31.3633 15.2827 29.0176 12.2978 28.7512 11.9603C28.0149 11.0277 26.7995 9.4891 26.6071 9.04374C26.6117 9.00649 26.6208 8.9675 26.6305 8.94073C26.6625 8.93259 26.7238 8.92153 26.8247 8.92153L38.242 8.88914V25.8654H47.9698V8.89825H59.0807V0.244873V0.244873ZM75.5801 1.9792L83.374 24.5229L77.0175 24.488L75.9855 21.1109L64.6498 21.0604L63.6371 24.3136H57.1644L64.8727 1.9792H75.5801ZM66.5 16.2598L74.2205 16.2501V16.2503C74.2471 16.2503 70.4687 5.15475 70.4435 5.14699C70.4159 5.14602 66.4131 16.2598 66.5 16.2598ZM76.6858 0.427403H63.7673L63.4067 1.47312L55.6979 23.8077L54.9876 25.8656H64.7804L65.1199 24.7748L65.7912 22.6177L74.8368 22.6578L75.5349 24.9415L75.8689 26.0333L77.0109 26.0398L83.3676 26.0749L85.5589 26.0869L84.843 24.016L77.0491 1.47195L76.6858 0.427403ZM68.6558 14.7055C69.2333 13.0669 69.8161 11.4303 70.4043 9.79558C70.9618 11.43 71.5171 13.0652 72.0701 14.7012L68.6558 14.7055ZM97.4697 1.9792C102.498 1.9792 105.987 2.05097 106.658 2.16735C108.21 2.43736 109.612 3.26524 110.664 4.5381C111.763 5.86838 112.016 6.505 112.159 8.32817C112.365 10.9024 111.141 13.1234 108.726 14.5642C108.022 14.9852 107.299 15.3945 107.118 15.4759C106.841 15.6018 106.878 15.7225 107.374 16.3044C107.694 16.6789 108.249 17.2124 108.606 17.4894L109.257 17.9956L121.299 18.1683L121.417 24.3136H114.034C108.324 24.3136 106.497 24.261 105.961 24.081C105.16 23.8094 103.232 22.1762 99.3134 18.448L96.5163 15.7865L96.5458 24.3136H89.36V1.9792H97.4697ZM96.4112 12.0212H100.227C103.94 12.0212 104.056 12.0094 104.585 11.6121C105.532 10.9022 105.867 10.1707 105.767 9.04762C105.665 7.8894 105.218 7.28652 104.099 6.80159C103.468 6.52595 102.861 6.48153 99.8853 6.48153H96.4112V12.0212ZM97.4697 0.427403H87.81V25.8654H98.1042L98.099 24.3083L98.0815 19.4169L98.2448 19.5721C103.091 24.183 104.521 25.2309 105.464 25.5504C106.188 25.7948 107.4 25.8654 114.035 25.8654H123L122.97 24.2839L122.852 18.1386L122.823 16.6386L121.323 16.6171L109.801 16.452L109.559 16.2642C109.483 16.2041 109.389 16.125 109.29 16.0353L109.524 15.8963C112.434 14.1596 113.959 11.3559 113.708 8.2046C113.54 6.07884 113.161 5.12119 111.861 3.54922C110.584 2.00344 108.831 0.969755 106.925 0.638641C105.865 0.454947 100.546 0.427403 97.4697 0.427403ZM97.963 8.03313H99.8853C102.606 8.03313 103.145 8.07833 103.477 8.22342C104.108 8.49634 104.172 8.62902 104.221 9.18475C104.271 9.73739 104.202 9.95949 103.654 10.3701L103.611 10.4023C103.249 10.4694 101.907 10.4694 100.227 10.4694H97.963V8.03313Z" fill="#FFFB12"/>
</svg>
