<svg width="30" height="30" viewBox="0 0 30 30" fill="none" xmlns="http://www.w3.org/2000/svg">
<g clip-path="url(#clip0)">
<path d="M26.7789 14.0512C23.3586 18.5318 18.6435 23.2737 14.0499 26.7802C21.3263 27.3665 27.3651 21.3261 26.7789 14.0512Z" fill="#585858"/>
<path d="M29.2368 0.778949C27.3007 -1.1571 23.2316 0.951917 20.874 2.39068C21.6016 2.72883 22.3005 3.13096 22.9635 3.59461C23.8771 3.08801 27.0147 1.51899 27.756 2.25979C28.7483 3.25207 26.0237 7.80573 25.2085 9.04364C21.3689 2.43176 12.1592 1.14557 6.65161 6.6529C3.31564 9.98881 2.46943 14.6909 3.80009 18.734C1.75781 21.6284 -1.50223 26.9583 0.777654 29.238C6.52329 34.9837 34.9891 6.53126 29.2368 0.778949ZM2.25855 27.7572C1.28865 26.7874 3.87234 22.3915 4.80533 20.9768C5.78712 22.6685 7.20802 24.1429 9.03902 25.2083C5.35529 27.6254 2.83839 28.3371 2.25855 27.7572Z" fill="#585858"/>
</g>
<defs>
<clipPath id="clip0">
<rect width="30" height="30" fill="white"/>
</clipPath>
</defs>
</svg>
