<svg width="39" height="29" viewBox="0 0 39 29" fill="none" xmlns="http://www.w3.org/2000/svg">
<rect x="16.5518" width="9.14704" height="13.4798" fill="#585858"/>
<path d="M17.1478 13.9613H25.1039L23.843 15.4055H18.4087L17.1478 13.9613Z" fill="#585858"/>
<rect x="7.88611" y="7.70276" width="0.962846" height="3.85138" fill="#585858"/>
<path d="M0 9.62845C0 8.25158 1.02164 7.08849 2.38702 6.91095L7.40475 6.25849V12.9984L2.38702 12.346C1.02164 12.1684 0 11.0053 0 9.62845V9.62845Z" fill="#585858"/>
<path d="M11.2562 13.4798C11.2562 12.6822 11.9028 12.0356 12.7004 12.0356V12.0356C13.4981 12.0356 14.1447 12.6822 14.1447 13.4798V23.5897H11.2562V13.4798Z" fill="#585858"/>
<path d="M11.2562 13.4798C11.2562 12.6822 11.9028 12.0356 12.7004 12.0356V12.0356C13.4981 12.0356 14.1447 12.6822 14.1447 13.4798V26.1069H11.2562V13.4798Z" fill="#585858"/>
<path fill-rule="evenodd" clip-rule="evenodd" d="M16.0704 1.92567L9.33044 4.81421V13.4798H10.7747C10.7748 12.4163 11.6369 11.5542 12.7004 11.5542C13.7639 11.5542 14.6261 12.4163 14.6261 13.4798H16.0704V1.92567Z" fill="#585858"/>
<path fill-rule="evenodd" clip-rule="evenodd" d="M32.7585 4.24739L26.1802 1.92567V13.4798H27.6245C27.6245 12.4163 28.4867 11.5542 29.5502 11.5542C30.6137 11.5542 31.4758 12.4163 31.4759 13.4798H34.3644V6.51728C34.3644 5.4967 33.7208 4.58706 32.7585 4.24739Z" fill="#585858"/>
<path d="M10.7747 26.1115H14.6261L15.5889 29H9.81183L10.7747 26.1115Z" fill="#585858"/>
<path d="M16.6632 26.0538L19.0343 23.0188L21.9033 24.0385L18.3466 28.5909L16.6632 26.0538Z" fill="#585858"/>
<path d="M28.1059 13.4798C28.1059 12.6822 28.7525 12.0356 29.5502 12.0356V12.0356C30.3478 12.0356 30.9944 12.6822 30.9944 13.4798V26.1069H28.1059V13.4798Z" fill="#585858"/>
<path d="M27.6245 26.1115H31.4759L32.4388 29H26.6617L27.6245 26.1115Z" fill="#585858"/>
<path fill-rule="evenodd" clip-rule="evenodd" d="M14.1446 19.7199C13.5183 19.2665 12.6403 19.3868 12.1604 20.0012C11.6693 20.6297 11.7807 21.5374 12.4093 22.0285L14.1446 23.3843V19.7199ZM14.626 23.7604L17.341 25.8816L19.1194 23.6054L14.626 20.0948V23.7604Z" fill="#585858"/>
<path d="M33.513 26.0538L35.8841 23.0188L38.7531 24.0385L35.1964 28.5909L33.513 26.0538Z" fill="#585858"/>
<path fill-rule="evenodd" clip-rule="evenodd" d="M30.9945 19.7199C30.3682 19.2665 29.4903 19.3868 29.0103 20.0012C28.5192 20.6297 28.6306 21.5374 29.2592 22.0285L30.9945 23.3843V19.7199ZM31.476 23.7604L34.191 25.8816L35.9693 23.6054L31.476 20.0948V23.7604Z" fill="#585858"/>
</svg>
