<svg width="30" height="30" viewBox="0 0 30 30" fill="none" xmlns="http://www.w3.org/2000/svg">
<path d="M8.0769 25.3846H21.9231L20.7692 27.6923H9.23075L8.0769 25.3846Z" fill="#585858"/>
<rect x="2.30774" y="11.5385" width="3.46154" height="17.3077" fill="#585858"/>
<path d="M2.30769 26.5385H5.76923L8.07692 30H0L2.30769 26.5385Z" fill="#585858"/>
<path d="M24.2308 26.5385H27.6923L30 30H21.9231L24.2308 26.5385Z" fill="#585858"/>
<path d="M6.9231 11.5385H8.07694V12.6923H6.9231V11.5385Z" fill="#585858"/>
<path d="M1.15381 10.2308C1.15381 9.67849 1.60152 9.23077 2.15381 9.23077H6.92304V15H1.15381V10.2308Z" fill="#585858"/>
<rect x="24.2307" y="11.5385" width="3.46154" height="17.3077" fill="#585858"/>
<path d="M23.0769 9.23077H27.8461C28.3984 9.23077 28.8461 9.67849 28.8461 10.2308V15H23.0769V9.23077Z" fill="#585858"/>
<path d="M21.9231 11.5385H25.3846V12.6923H21.9231V11.5385Z" fill="#585858"/>
<path fill-rule="evenodd" clip-rule="evenodd" d="M21.9231 6.92308C21.9231 3.09957 18.8235 0 15 0C11.1765 0 8.0769 3.09957 8.0769 6.92308H21.9231ZM16.7308 4.03846C16.7308 4.99434 15.9559 5.76923 15 5.76923C14.0442 5.76923 13.2693 4.99434 13.2693 4.03846C13.2693 3.08259 14.0442 2.30769 15 2.30769C15.9559 2.30769 16.7308 3.08259 16.7308 4.03846ZM19.0385 6.92307C19.3571 6.92307 19.6154 6.66478 19.6154 6.34615C19.6154 6.02752 19.3571 5.76923 19.0385 5.76923C18.7198 5.76923 18.4615 6.02752 18.4615 6.34615C18.4615 6.66478 18.7198 6.92307 19.0385 6.92307Z" fill="#585858"/>
<path fill-rule="evenodd" clip-rule="evenodd" d="M21.9231 6.92308H8.0769V24.2308H21.9231L21.9231 9.23077H8.07691V8.07692H21.9231L21.9231 6.92308Z" fill="#585858"/>
</svg>
