<svg width="373" height="536" viewBox="0 0 373 536" fill="none" xmlns="http://www.w3.org/2000/svg">
<g opacity="0.8" filter="url(#filter0_f)">
<circle cx="193.5" cy="133.5" r="1.5" fill="white"/>
<circle cx="233.5" cy="323.5" r="1.5" fill="white"/>
<circle cx="13.5" cy="103.5" r="1.5" fill="white"/>
<circle cx="262.5" cy="82.5" r="0.5" fill="white"/>
<circle cx="273.5" cy="339.5" r="1.5" fill="white"/>
<circle cx="341.5" cy="83.5" r="1.5" fill="white"/>
<circle cx="311.5" cy="53.5" r="1.5" fill="white"/>
<circle cx="371.5" cy="133.5" r="1.5" fill="white"/>
<circle cx="341.5" cy="353.5" r="1.5" fill="white"/>
<circle cx="311.5" cy="3.5" r="1.5" fill="white"/>
<circle cx="253" cy="93" r="1" fill="white"/>
<circle cx="43" cy="143" r="1" fill="white"/>
<circle cx="113" cy="133" r="1" fill="white"/>
<circle cx="163" cy="93" r="1" fill="white"/>
<circle cx="23" cy="353" r="1" fill="white"/>
<circle cx="9" cy="503" r="1" fill="white"/>
<circle cx="21" cy="533" r="1" fill="white"/>
<circle cx="344" cy="103" r="1" fill="white"/>
<circle cx="324" cy="10" r="1" fill="white"/>
<circle cx="254" cy="23" r="1" fill="white"/>
<circle cx="224" cy="33" r="1" fill="white"/>
<circle cx="204" cy="63" r="1" fill="white"/>
<circle cx="181" cy="33" r="1" fill="white"/>
<circle cx="161" cy="63" r="1" fill="white"/>
<circle cx="112" cy="33" r="1" fill="white"/>
<circle cx="214" cy="14" r="1" fill="white"/>
<circle cx="234" cy="144" r="1" fill="white"/>
<circle cx="164" cy="124" r="1" fill="white"/>
<circle cx="349" cy="194" r="1" fill="white"/>
<circle cx="341" cy="284" r="1" fill="white"/>
<circle cx="261" cy="324" r="1" fill="white"/>
<circle cx="301" cy="364" r="1" fill="white"/>
<circle cx="342" cy="514" r="1" fill="white"/>
<circle cx="7" cy="24" r="1" fill="white"/>
<circle cx="77" cy="94" r="1" fill="white"/>
<circle cx="37" cy="34" r="1" fill="white"/>
<circle cx="114" cy="3" r="1" fill="white"/>
<circle cx="93.5" cy="123.5" r="1.5" fill="white"/>
<circle cx="4" cy="174" r="2" fill="white"/>
<circle cx="18.5" cy="203.5" r="1.5" fill="white"/>
<circle cx="18.5" cy="373.5" r="1.5" fill="white"/>
<circle cx="353.5" cy="373.5" r="1.5" fill="white"/>
<circle cx="144" cy="447" r="2" fill="white"/>
<circle cx="94" cy="158" r="2" fill="white"/>
<circle cx="74" cy="75" r="2" fill="white"/>
<circle cx="293.5" cy="133.5" r="1.5" fill="white"/>
<circle cx="343" cy="304" r="2" fill="white"/>
<circle cx="349" cy="453" r="1" fill="white"/>
<circle cx="204" cy="374" r="2" fill="white"/>
<circle cx="344" cy="164" r="2" fill="white"/>
<circle cx="324" cy="324" r="2" fill="white"/>
<circle cx="253.5" cy="113.5" r="1.5" fill="white"/>
<circle cx="234" cy="74" r="2" fill="white"/>
<circle cx="13.5" cy="13.5" r="1.5" fill="white"/>
<circle cx="173.5" cy="73.5" r="1.5" fill="white"/>
<circle cx="154" cy="74" r="2" fill="white"/>
<circle cx="173.5" cy="3.5" r="1.5" fill="white"/>
<circle cx="93.5" cy="13.5" r="1.5" fill="white"/>
<circle cx="54" cy="34" r="2" fill="white"/>
<circle cx="22.5" cy="132.5" r="0.5" fill="white"/>
</g>
<defs>
<filter id="filter0_f" x="0" y="0" width="375" height="536" filterUnits="userSpaceOnUse" color-interpolation-filters="sRGB">
<feFlood flood-opacity="0" result="BackgroundImageFix"/>
<feBlend mode="normal" in="SourceGraphic" in2="BackgroundImageFix" result="shape"/>
<feGaussianBlur stdDeviation="1" result="effect1_foregroundBlur"/>
</filter>
</defs>
</svg>
