<svg width="28" height="28" viewBox="0 0 28 28" fill="none" xmlns="http://www.w3.org/2000/svg">
<path d="M28 3.10067C28 1.85524 26.9904 0.845638 25.745 0.845638H2.25503C1.0096 0.845638 0 1.85524 0 3.10067V24.8993C0 26.1448 1.0096 27.1544 2.25503 27.1544H25.745C26.9904 27.1544 28 26.1448 28 24.8993V3.10067ZM8.55034 3.66443H12.5906V6.85906H8.55034V3.66443ZM5.73154 24.3356H2.81879V21.1409H5.73154V24.3356ZM5.73154 6.85906H2.81879V3.66443H5.73154V6.85906ZM12.5906 24.3356H8.55034V21.1409H12.5906V24.3356ZM11.557 16.6034V11.3965C11.557 10.6213 12.1084 10.3345 12.7569 10.7591L16.5376 13.2277C17.1861 13.6523 17.1913 14.3471 16.5428 14.7718L12.7543 17.2408C12.1058 17.6655 11.557 17.3786 11.557 16.6034ZM19.4497 24.3356H15.4094V21.1409H19.4497V24.3356ZM19.4497 6.85906H15.4094V3.66443H19.4497V6.85906ZM25.1812 24.3356H22.2685V21.1409H25.1812V24.3356ZM25.1812 6.85906H22.2685V3.66443H25.1812V6.85906Z" fill="#585858"/>
</svg>
