<svg width="30" height="30" viewBox="0 0 30 30" fill="none" xmlns="http://www.w3.org/2000/svg">
<path d="M27.0501 11.3885L18.6115 2.94978C18.3042 2.64251 17.8324 2.57384 17.4504 2.78079C14.6583 4.29257 12.141 6.39725 10.1735 8.86317C8.70604 10.6838 7.5252 12.6988 6.6634 14.8529C6.37296 15.5822 6.12786 16.3231 5.91481 17.0615L2.76681 18.9466C2.50742 19.1021 2.33404 19.3681 2.29695 19.6681C2.25992 19.9684 2.36339 20.2686 2.57708 20.4822L4.03155 21.9367C3.04935 23.2126 1.46638 25.6241 1.46363 27.015C1.46234 27.5768 1.69132 27.924 1.88369 28.1163C2.07535 28.3084 2.42128 28.5364 2.98062 28.5364C2.98191 28.5364 2.98349 28.5364 2.98507 28.5364C4.37597 28.5336 6.78751 26.9507 8.06332 25.9685L9.51779 27.4229C9.70271 27.6082 9.95279 27.7105 10.2115 27.7105C10.2514 27.7105 10.2918 27.7079 10.332 27.7031C10.6319 27.6661 10.898 27.4926 11.0535 27.2333L12.9387 24.0851C13.6776 23.8727 14.4211 23.6254 15.1536 23.33C17.3135 22.4701 19.3268 21.2912 21.133 19.8295C23.6028 17.859 25.7074 15.3416 27.2192 12.5496C27.4261 12.1676 27.357 11.6955 27.0501 11.3885ZM10.016 25.1458L4.85421 19.984L6.59186 18.9434L11.0567 23.4082L10.016 25.1458ZM19.9256 15.6249C19.1852 16.3656 18.1994 16.7732 17.1502 16.7732C16.1009 16.7732 15.1155 16.3657 14.3751 15.6252C14.3751 15.6248 14.3751 15.6248 14.3751 15.6248C14.3751 15.6248 14.3751 15.6248 14.3747 15.6248C13.6343 14.8844 13.2267 13.899 13.2267 12.8497C13.2267 11.8004 13.6343 10.8147 14.375 10.0743C15.9054 8.54395 18.3952 8.54424 19.9255 10.0739C21.4559 11.6051 21.4559 14.0949 19.9256 15.6249Z" fill="#585858"/>
<path d="M29.1254 0.874507C28.5064 0.254762 27.6523 -0.0585378 26.7835 0.00913789C24.4513 0.191716 22.1881 0.724273 20.0215 1.5846L28.4152 9.97832C29.2753 7.81235 29.8078 5.54981 29.9904 3.21831C30.0604 2.34831 29.7451 1.49384 29.1254 0.874507Z" fill="#585858"/>
<path d="M15.8794 25.1531C15.2136 25.4217 14.5355 25.6499 13.8573 25.8571C13.7059 26.7903 13.4252 27.7171 13.0075 28.5986C12.8299 28.973 12.9069 29.4186 13.1997 29.7118C13.3879 29.9006 13.6392 29.9999 13.8945 29.9999C14.036 29.9999 14.1791 29.9692 14.3129 29.906C15.6186 29.2902 16.8066 28.4555 17.8457 27.4229C19.2853 25.9837 20.331 24.2746 20.9277 22.4333C19.3589 23.5266 17.6668 24.4415 15.8794 25.1531Z" fill="#585858"/>
<path d="M2.57479 12.1563C1.54437 13.1932 0.709699 14.381 0.0938797 15.6869C-0.0830731 16.0618 -0.00514359 16.5078 0.288411 16.8003C0.476555 16.9881 0.727277 17.0868 0.981573 17.0868C1.12407 17.0868 1.2681 17.0558 1.40257 16.9917C2.28376 16.5727 3.21018 16.2918 4.14323 16.1415C4.34965 15.4656 4.57582 14.7906 4.84008 14.1269C5.55363 12.3432 6.47074 10.6506 7.57025 9.07129C5.7276 9.66778 4.01666 10.7144 2.57479 12.1563Z" fill="#585858"/>
</svg>
